<svg version="1" xmlns="http://www.w3.org/2000/svg" width="346.667" height="346.667" viewBox="0 0 260.000000 260.000000"><path d="M115.6 1C85.2 4.8 59.7 17.2 38.5 38.5 19.9 57.1 8.4 78.3 2.9 104.3c-3.1 14.4-3.1 37 0 51.4 5.5 26 17 47.2 35.6 65.8 18.6 18.6 39.8 30.1 65.8 35.6 14.4 3.1 37 3.1 51.4 0 26-5.5 47.4-17 65.8-35.5 18.7-18.8 30.1-39.9 35.6-65.9 3.1-14.4 3.1-37 0-51.4C246.2 52.7 207 13.4 156.1 3 144.6.7 125.6-.3 115.6 1zm50.8 56.5c10.1 1.5 29.5 6.2 30.8 7.4 1.1.9-10.8 8.5-15.7 10.1-2.2.7-5.2 2.2-6.8 3.2-4.1 2.9-12.3 5.5-19.7 6.3-8.6.9-18.4-.8-30-5.2-12-4.5-17.9-4.3-23.5.5-3.8 3.4-4.3 3.6-6.1 2.4-3.5-2.3-4.4-9.8-2-15.7 2.5-5.9 7.1-7 13-3 5 3.4 9.4 3.2 19.6-1.1 16.9-7.1 22-7.7 40.4-4.9zM69 106.3v38.2l13-13c12.8-12.8 14.6-15.5 11.8-18.3-.7-.7-2.5-1.2-4.1-1.2-2.6 0-2.8-.3-2.5-3.3l.3-3.2 20.8-.3c19.9-.2 20.7-.2 20.7 1.7 0 3.5-1.2 5.1-3.6 5.1-4.9 0-9.9 3.2-19.6 12.7-5.4 5.3-9.8 10.1-9.8 10.7 0 .5 6.1 10.5 13.5 22.1 11 17.3 14.2 21.5 17.4 23.3 2.1 1.2 4.6 2.2 5.4 2.2 2.2 0 2.8 1.3 2.1 4.9l-.6 3.1h-33.4l-1-3.8c-.6-2.2-5.5-11-10.9-19.6l-9.9-15.7-4.8 4.8-4.9 4.8.3 9.5.3 9.5 5.2 2c4.9 1.8 5.3 2.3 5.3 5.2v3.3H34v-3.3c0-2.9.5-3.5 4.3-5.2l4.2-2 .3-47.6c.2-44.5.1-47.8-1.6-49.9-.9-1.2-3.2-2.5-5-2.8-1.8-.4-3.3-1-3.3-1.5.1-.4.1-2 .1-3.5v-2.8l13.6-2.3c7.4-1.3 14.7-2.6 16.2-3.1 1.5-.4 3.5-.3 4.5.2 1.6.8 1.7 3.7 1.7 39.1zm122.1-1.9c8.7 1.9 13.9 4.6 18.1 9.6 5.4 6.2 5.8 8.9 5.8 38.7 0 30.1-.3 28.8 7.3 31.3 3.6 1.1 4.3 2.3 3.1 5.4-.5 1.4-2.9 1.6-16.4 1.6-17 0-17 0-17-5.4 0-3.7-.9-3.7-6.1-.1-6.8 4.7-13.6 6.7-22.4 6.7-12.4-.1-21-5.2-23.5-14-3-10.8.5-21.7 8.8-27.2 6.6-4.3 12.8-6 28.1-7.3l13.4-1.1-.5-11.1c-.6-13.2-2.2-17.8-7.1-20.1-3.8-1.8-10.8-1.3-13.8.9-4.1 3.2-4.9 8.1-1.8 12.1 1.8 2.3 1.9 2.9.7 5.2-3 6.3-11.7 8.6-18.5 5-8-4.1-8.5-16.4-1.1-23.3 2.9-2.7 10.5-6.1 16.1-7.2 6.7-1.4 19.6-1.2 26.8.3z"/><path d="M173.5 153.5c-3.2.8-5.9 2.4-7.7 4.4-2.4 2.7-2.8 4-2.8 9.1 0 3.2.5 7.1 1.2 8.5 1.3 3 5.5 5.5 9 5.5 3.4-.1 9.8-3.3 13.6-6.8 3.2-3 3.2-3.1 3.2-12.6V152l-5.7.1c-3.2 0-8 .6-10.8 1.4z"/></svg>